{
	"asset":{
		"generator":"Khronos glTF Blender I/O v3.6.6",
		"version":"2.0"
	},
	"scene":0,
	"scenes":[
		{
			"name":"Scene",
			"nodes":[
				0
			]
		}
	],
	"nodes":[
		{
			"mesh":0,
			"name":"Astronaut",
			"scale":[
				1.193173885345459,
				1.193173885345459,
				0.8868684768676758
			]
		}
	],
	"meshes":[
		{
			"name":"Cube.002",
			"primitives":[
				{
					"attributes":{
						"COLOR_0":0,
						"POSITION":1
					},
					"indices":2
				}
			]
		}
	],
	"accessors":[
		{
			"bufferView":0,
			"componentType":5123,
			"count":5248,
			"normalized":true,
			"type":"VEC4"
		},
		{
			"bufferView":1,
			"componentType":5126,
			"count":5248,
			"max":[
				1.080234169960022,
				1.7686434984207153,
				1.7833646535873413
			],
			"min":[
				-1.0802340507507324,
				-2.0063562393188477,
				-2.3349733352661133
			],
			"type":"VEC3"
		},
		{
			"bufferView":2,
			"componentType":5123,
			"count":31200,
			"type":"SCALAR"
		}
	],
	"bufferViews":[
		{
			"buffer":0,
			"byteLength":41984,
			"byteOffset":0,
			"target":34962
		},
		{
			"buffer":0,
			"byteLength":62976,
			"byteOffset":41984,
			"target":34962
		},
		{
			"buffer":0,
			"byteLength":62400,
			"byteOffset":104960,
			"target":34963
		}
	],
	"buffers":[
		{
			"byteLength":167360,
			"uri":"data:application/octet-stream;base64,"
		}
	]
}
