{
	"asset":{
		"generator":"Khronos glTF Blender I/O v3.6.6",
		"version":"2.0"
	},
	"scene":0,
	"scenes":[
		{
			"name":"Scene",
			"nodes":[
				0
			]
		}
	],
	"nodes":[
		{
			"mesh":0,
			"name":"Teapot",
			"rotation":[
				0.7071068286895752,
				0,
				0,
				0.7071068286895752
			]
		}
	],
	"meshes":[
		{
			"name":"Teapot",
			"primitives":[
				{
					"attributes":{
						"COLOR_0":0,
						"POSITION":1
					},
					"indices":2
				}
			]
		}
	],
	"accessors":[
		{
			"bufferView":0,
			"componentType":5123,
			"count":3241,
			"normalized":true,
			"type":"VEC4"
		},
		{
			"bufferView":1,
			"componentType":5126,
			"count":3241,
			"max":[
				2,
				3,
				0
			],
			"min":[
				-2,
				-3.434000015258789,
				-3.1500000953674316
			],
			"type":"VEC3"
		},
		{
			"bufferView":2,
			"componentType":5123,
			"count":18960,
			"type":"SCALAR"
		}
	],
	"bufferViews":[
		{
			"buffer":0,
			"byteLength":25928,
			"byteOffset":0,
			"target":34962
		},
		{
			"buffer":0,
			"byteLength":38892,
			"byteOffset":25928,
			"target":34962
		},
		{
			"buffer":0,
			"byteLength":37920,
			"byteOffset":64820,
			"target":34963
		}
	],
	"buffers":[
		{
			"byteLength":102740,
			"uri":"data:application/octet-stream;base64,"
		}
	]
}
